<?xml version="1.0"?>
<svg xmlns="http://www.w3.org/2000/svg" viewBox="0 0 64 64">
    <path d="M 23.65625 4 C 22.32025 4 21.065094 4.5208437 20.121094 5.4648438 L 11.464844 14.121094 C 10.520844 15.066094 10 16.32125 10 17.65625 L 10 57 C 10 58.654 11.346 60 13 60 L 53 60 C 54.654 60 56 58.654 56 57 L 56 7 C 56 5.346 54.654 4 53 4 L 23.65625 4 z M 24 6 L 53 6 C 53.552 6 54 6.449 54 7 L 54 57 C 54 57.551 53.552 58 53 58 L 13 58 C 12.448 58 12 57.551 12 57 L 12 18 L 21 18 C 22.654 18 24 16.654 24 15 L 24 6 z M 22 6.4980469 L 22 15 C 22 15.551 21.552 16 21 16 L 12.498047 16 C 12.608047 15.835 12.734906 15.679156 12.878906 15.535156 L 21.535156 6.8789062 C 21.679156 6.7349062 21.835 6.6080469 22 6.4980469 z M 35.845703 20.009766 C 35.460484 20.069625 35.129047 20.355812 35.029297 20.757812 L 29.029297 44.757812 C 28.894297 45.293813 29.220812 45.836703 29.757812 45.970703 C 29.838812 45.991703 29.921953 46.001953 30.001953 46.001953 C 30.449953 46.001953 30.856703 45.698141 30.970703 45.244141 L 36.970703 21.244141 C 37.104703 20.707141 36.778187 20.163297 36.242188 20.029297 C 36.107937 19.995047 35.974109 19.989812 35.845703 20.009766 z M 24 26 C 23.74425 26 23.488469 26.097469 23.292969 26.292969 L 17.292969 32.292969 C 16.901969 32.683969 16.901969 33.316031 17.292969 33.707031 L 23.292969 39.707031 C 23.487969 39.902031 23.744 40 24 40 C 24.256 40 24.512031 39.902031 24.707031 39.707031 C 25.098031 39.316031 25.098031 38.683969 24.707031 38.292969 L 19.414062 33 L 24.707031 27.707031 C 25.098031 27.316031 25.098031 26.683969 24.707031 26.292969 C 24.511531 26.097469 24.25575 26 24 26 z M 42 26 C 41.74425 26 41.488469 26.097469 41.292969 26.292969 C 40.901969 26.683969 40.901969 27.316031 41.292969 27.707031 L 46.585938 33 L 41.292969 38.292969 C 40.901969 38.683969 40.901969 39.316031 41.292969 39.707031 C 41.487969 39.902031 41.744 40 42 40 C 42.256 40 42.512031 39.902031 42.707031 39.707031 L 48.707031 33.707031 C 49.098031 33.316031 49.098031 32.683969 48.707031 32.292969 L 42.707031 26.292969 C 42.511531 26.097469 42.25575 26 42 26 z M 15 50 C 14.447 50 14 50.448 14 51 L 14 53 C 14 53.552 14.447 54 15 54 C 15.553 54 16 53.552 16 53 L 16 51 C 16 50.448 15.553 50 15 50 z M 20 50 C 19.447 50 19 50.448 19 51 L 19 53 C 19 53.552 19.447 54 20 54 C 20.553 54 21 53.552 21 53 L 21 51 C 21 50.448 20.553 50 20 50 z M 25 50 C 24.447 50 24 50.448 24 51 L 24 53 C 24 53.552 24.447 54 25 54 C 25.553 54 26 53.552 26 53 L 26 51 C 26 50.448 25.553 50 25 50 z M 30 50 C 29.447 50 29 50.448 29 51 L 29 53 C 29 53.552 29.447 54 30 54 C 30.553 54 31 53.552 31 53 L 31 51 C 31 50.448 30.553 50 30 50 z M 35 50 C 34.447 50 34 50.448 34 51 L 34 53 C 34 53.552 34.447 54 35 54 C 35.553 54 36 53.552 36 53 L 36 51 C 36 50.448 35.553 50 35 50 z M 40 50 C 39.447 50 39 50.448 39 51 L 39 53 C 39 53.552 39.447 54 40 54 C 40.553 54 41 53.552 41 53 L 41 51 C 41 50.448 40.553 50 40 50 z M 45 50 C 44.447 50 44 50.448 44 51 L 44 53 C 44 53.552 44.447 54 45 54 C 45.553 54 46 53.552 46 53 L 46 51 C 46 50.448 45.553 50 45 50 z M 50 50 C 49.447 50 49 50.448 49 51 L 49 53 C 49 53.552 49.447 54 50 54 C 50.553 54 51 53.552 51 53 L 51 51 C 51 50.448 50.553 50 50 50 z"/>
</svg>
