<?xml version="1.0"?>
<svg xmlns="http://www.w3.org/2000/svg" id="_x31__x2C_5" enable-background="new 0 0 24 24" height="512px" viewBox="0 0 24 24" width="512px" class=""><g><g id="XMLID_1_"><path d="m16 14.25v-4.5c0-.41.34-.75.75-.75s.75.34.75.75v3.75h1.75c.41 0 .75.34.75.75s-.34.75-.75.75h-2.5c-.41 0-.75-.34-.75-.75z" data-original="#000000" class="active-path" data-old_color="#000000" fill="#FFFFFF"/><path d="m13.88 13.86c.18.29.15.67-.1.92-.15.15-.34.22-.53.22-.14 0-.28-.04-.4-.12.48-.16.86-.54 1.03-1.02z" data-original="#000000" class="active-path" data-old_color="#000000" fill="#FFFFFF"/><path d="m11.72 12.72c.21-.21.52-.27.78-.17v.7c0 .14-.11.25-.25.25h-.5c-.14 0-.25-.11-.25-.25 0-.19.08-.39.22-.53z" data-original="#000000" class="active-path" data-old_color="#000000" fill="#FFFFFF"/><path d="m11.72 13.78c-.14-.14-.22-.34-.22-.53 0 .14.11.25.25.25h.5c.14 0 .25-.11.25-.25v-.7c.11.03.2.09.28.17l1 1c.04.04.08.09.1.14-.17.48-.55.86-1.03 1.02-.05-.03-.09-.06-.13-.1z" data-original="#000000" class="active-path" data-old_color="#000000" fill="#FFFFFF"/><path d="m11.75 10.5c-.14 0-.25.11-.25.25v2.5c0 .19.08.39.22.53l1 1c.04.04.08.07.13.1-.19.08-.39.12-.6.12h-.5c-.97 0-1.75-.78-1.75-1.75v-2.5c0-.97.78-1.75 1.75-1.75h.5c.97 0 1.75.78 1.75 1.75v2.5c0 .21-.04.42-.12.61-.02-.05-.06-.1-.1-.14l-1-1c-.08-.08-.17-.14-.28-.17v-1.8c0-.14-.11-.25-.25-.25z" data-original="#000000" class="active-path" data-old_color="#000000" fill="#FFFFFF"/><path d="m8 13.12c0 1.04-.8 1.88-1.79 1.88h-1.46c-.41 0-.75-.34-.75-.75s.34-.75.75-.75h1.46c.16 0 .29-.17.29-.38 0-.2-.13-.37-.29-.37h-.42c-.99 0-1.79-.84-1.79-1.87 0-1.04.8-1.88 1.79-1.88h1.46c.41 0 .75.34.75.75s-.34.75-.75.75h-1.46c-.16 0-.29.17-.29.38 0 .2.13.37.29.37h.42c.99 0 1.79.84 1.79 1.87z" data-original="#000000" class="active-path" data-old_color="#000000" fill="#FFFFFF"/><path d="m0 5.75c0-1.52 1.23-2.75 2.75-2.75h18.5c1.52 0 2.75 1.23 2.75 2.75v12.5c0 1.52-1.23 2.75-2.75 2.75h-18.5c-1.52 0-2.75-1.23-2.75-2.75zm21.25-1.25h-18.5c-.69 0-1.25.56-1.25 1.25v12.5c0 .69.56 1.25 1.25 1.25h18.5c.69 0 1.25-.56 1.25-1.25v-12.5c0-.69-.56-1.25-1.25-1.25z" data-original="#000000" class="active-path" data-old_color="#000000" fill="#FFFFFF"/></g></g> </svg>
