<?xml version="1.0"?>
<svg xmlns="http://www.w3.org/2000/svg" xmlns:xlink="http://www.w3.org/1999/xlink" version="1.1" id="Capa_1" x="0px" y="0px" viewBox="0 0 512 512" style="enable-background:new 0 0 512 512;" xml:space="preserve" width="512px" height="512px"><g><g>
	<g>
		<g>
			<path d="M32,464V48c0-8.837,7.163-16,16-16h240v64c0,17.673,14.327,32,32,32h64v48h32v-64c0.025-4.253-1.645-8.341-4.64-11.36     l-96-96C312.341,1.645,308.253-0.024,304,0H48C21.49,0,0,21.491,0,48v416c0,26.51,21.49,48,48,48h112v-32H48     C39.164,480,32,472.837,32,464z" data-original="#000000" class="active-path" data-old_color="#000000" fill="#FFFFFF"/>
			<path d="M209.76,264.8L192,300.16l-17.76-35.36c-2.711-5.38-8.215-8.782-14.24-8.8h-32v32h22.08l24,48l-24,48H128v32h32     c6.025-0.018,11.529-3.42,14.24-8.8L192,371.84l17.76,35.36c2.711,5.38,8.215,8.782,14.24,8.8h32v-32h-22.08l-24-48l24-48H256     v-32h-32C217.975,256.019,212.471,259.42,209.76,264.8z" data-original="#000000" class="active-path" data-old_color="#000000" fill="#FFFFFF"/>
			<path d="M448,384V256h-32v144c0,8.837,7.163,16,16,16h80v-32H448z" data-original="#000000" class="active-path" data-old_color="#000000" fill="#FFFFFF"/>
			<path d="M390.08,257.28c-5.99-2.465-12.875-1.075-17.44,3.52L336,297.44l-36.64-36.64c-6.223-6.274-16.353-6.316-22.627-0.093     c-3.013,2.988-4.715,7.05-4.733,11.293v144h32V310.56l20.64,20.64c6.241,6.204,16.319,6.204,22.56,0l20.8-20.64V416h32V272     C399.968,265.541,396.055,259.735,390.08,257.28z" data-original="#000000" class="active-path" data-old_color="#000000" fill="#FFFFFF"/>
		</g>
	</g>
</g></g> </svg>
